<svg width="640" height="420" viewBox="0 0 640 420" xmlns="http://www.w3.org/2000/svg">
  <defs>
    <linearGradient id="bg" x1="0" y1="0" x2="1" y2="1">
      <stop offset="0%" stop-color="#fdf7f1"/>
      <stop offset="100%" stop-color="#f1dfc8"/>
    </linearGradient>
  </defs>
  <rect width="640" height="420" rx="32" fill="url(#bg)"/>
  <rect x="110" y="70" width="420" height="280" rx="30" fill="#ffffff" stroke="#ecd3b8"/>
  <rect x="140" y="110" width="360" height="200" rx="20" fill="#f8ead8"/>
  <circle cx="260" cy="190" r="42" fill="#f3d9bf"/>
  <circle cx="260" cy="190" r="20" fill="#ffffff"/>
  <path d="M260 150c-24 36-44 46-44 70 0 24 20 42 44 42s44-18 44-42c0-24-20-34-44-70z" fill="#ff9c6b"/>
  <rect x="320" y="150" width="140" height="16" rx="8" fill="#d9a878"/>
  <rect x="320" y="180" width="180" height="12" rx="6" fill="#e8c9a8"/>
  <rect x="320" y="205" width="130" height="12" rx="6" fill="#e8c9a8"/>
  <rect x="170" y="260" width="300" height="18" rx="9" fill="#f0ddc6"/>
  <rect x="200" y="290" width="240" height="14" rx="7" fill="#f5e2cc"/>
</svg>
